HIERARCHY
ROOT Hips
{
	OFFSET -4.395650 12.296185 94.475899
	CHANNELS 6 Xposition Yposition Zposition Zrotation Xrotation Yrotation
	JOINT LeftUpLeg
	{
		OFFSET 8.642590 2.388350 1.953979
		CHANNELS 6 Xposition Yposition Zposition Zrotation Xrotation Yrotation
		JOINT LeftLeg
		{
			OFFSET 43.770199 0.000000 0.000000
			CHANNELS 6 Xposition Yposition Zposition Zrotation Xrotation Yrotation
			JOINT LeftFoot
			{
				OFFSET 40.623798 0.000000 0.000000
				CHANNELS 6 Xposition Yposition Zposition Zrotation Xrotation Yrotation
				JOINT LeftToeBase
				{
					OFFSET 12.724197 0.000000 0.000000
					CHANNELS 6 Xposition Yposition Zposition Zrotation Xrotation Yrotation
					End Site
					{
						OFFSET 0.000000 0.000000 0.099998
					}
				}
			}
		}
	}
	JOINT RightUpLeg
	{
		OFFSET -8.224900 2.593360 1.953979
		CHANNELS 6 Xposition Yposition Zposition Zrotation Xrotation Yrotation
		JOINT RightLeg
		{
			OFFSET 43.565300 0.000000 0.000000
			CHANNELS 6 Xposition Yposition Zposition Zrotation Xrotation Yrotation
			JOINT RightFoot
			{
				OFFSET 40.623802 0.000000 0.000000
				CHANNELS 6 Xposition Yposition Zposition Zrotation Xrotation Yrotation
				JOINT RightToeBase
				{
					OFFSET 12.724197 0.000000 0.000000
					CHANNELS 6 Xposition Yposition Zposition Zrotation Xrotation Yrotation
					End Site
					{
						OFFSET 0.000000 0.000000 0.099998
					}
				}
			}
		}
	}
	JOINT Spine
	{
		OFFSET 0.165834 -6.613491 0.877136
		CHANNELS 6 Xposition Yposition Zposition Zrotation Xrotation Yrotation
		JOINT Spine1
		{
			OFFSET 7.389630 0.000000 0.000015
			CHANNELS 6 Xposition Yposition Zposition Zrotation Xrotation Yrotation
			JOINT Spine2
			{
				OFFSET 11.944500 0.000000 0.000015
				CHANNELS 6 Xposition Yposition Zposition Zrotation Xrotation Yrotation
				JOINT Spine3
				{
					OFFSET 14.725400 0.000000 0.000046
					CHANNELS 6 Xposition Yposition Zposition Zrotation Xrotation Yrotation
					JOINT Spine4
					{
						OFFSET 10.967901 0.000000 0.000000
						CHANNELS 6 Xposition Yposition Zposition Zrotation Xrotation Yrotation
						JOINT RightShoulder
						{
							OFFSET 2.466160 -3.696510 -1.665298
							CHANNELS 6 Xposition Yposition Zposition Zrotation Xrotation Yrotation
							JOINT RightArm
							{
								OFFSET 13.001202 0.000000 0.000000
								CHANNELS 6 Xposition Yposition Zposition Zrotation Xrotation Yrotation
								JOINT RightForeArm
								{
									OFFSET 28.784798 0.000000 0.000015
									CHANNELS 6 Xposition Yposition Zposition Zrotation Xrotation Yrotation
									JOINT RightHand
									{
										OFFSET 26.568802 0.000000 0.000015
										CHANNELS 6 Xposition Yposition Zposition Zrotation Xrotation Yrotation
										JOINT RightHandMiddle1
										{
											OFFSET 8.036751 -0.727868 -0.886581
											CHANNELS 6 Xposition Yposition Zposition Zrotation Xrotation Yrotation
											JOINT RightHandMiddle2
											{
												OFFSET 2.788330 0.000000 0.000000
												CHANNELS 6 Xposition Yposition Zposition Zrotation Xrotation Yrotation
												JOINT RightHandMiddle3
												{
													OFFSET 2.411552 0.000000 0.000000
													CHANNELS 6 Xposition Yposition Zposition Zrotation Xrotation Yrotation
													End Site
													{
														OFFSET 0.000000 0.000000 0.099998
													}
												}
											}
										}
										JOINT RightHandRing1
										{
											OFFSET 7.979660 1.004860 -0.886765
											CHANNELS 6 Xposition Yposition Zposition Zrotation Xrotation Yrotation
											JOINT RightHandRing2
											{
												OFFSET 2.863678 0.000000 0.000000
												CHANNELS 6 Xposition Yposition Zposition Zrotation Xrotation Yrotation
												JOINT RightHandRing3
												{
													OFFSET 2.110786 0.000000 0.000000
													CHANNELS 6 Xposition Yposition Zposition Zrotation Xrotation Yrotation
													End Site
													{
														OFFSET 0.000000 0.000000 0.099998
													}
												}
											}
										}
										JOINT RightHandPinky1
										{
											OFFSET 8.037071 2.606960 -0.887527
											CHANNELS 6 Xposition Yposition Zposition Zrotation Xrotation Yrotation
											JOINT RightHandPinky2
											{
												OFFSET 1.846283 0.000000 0.000000
												CHANNELS 6 Xposition Yposition Zposition Zrotation Xrotation Yrotation
												JOINT RightHandPinky3
												{
													OFFSET 1.884338 0.000000 0.000000
													CHANNELS 6 Xposition Yposition Zposition Zrotation Xrotation Yrotation
													End Site
													{
														OFFSET 0.000000 0.000000 0.099998
													}
												}
											}
										}
										JOINT RightHandIndex1
										{
											OFFSET 7.922623 -2.311760 -0.885498
											CHANNELS 6 Xposition Yposition Zposition Zrotation Xrotation Yrotation
											JOINT RightHandIndex2
											{
												OFFSET 2.637611 0.000000 0.000000
												CHANNELS 6 Xposition Yposition Zposition Zrotation Xrotation Yrotation
												JOINT RightHandIndex3
												{
													OFFSET 2.166557 0.000000 0.000000
													CHANNELS 6 Xposition Yposition Zposition Zrotation Xrotation Yrotation
													End Site
													{
														OFFSET 0.000000 -0.000000 0.099998
													}
												}
											}
										}
										JOINT RightHandThumb1
										{
											OFFSET 3.476898 -2.887890 0.059799
											CHANNELS 6 Xposition Yposition Zposition Zrotation Xrotation Yrotation
											JOINT RightHandThumb2
											{
												OFFSET 2.776863 0.000015 0.000099
												CHANNELS 6 Xposition Yposition Zposition Zrotation Xrotation Yrotation
												JOINT RightHandThumb3
												{
													OFFSET 2.420578 0.000000 -0.000092
													CHANNELS 6 Xposition Yposition Zposition Zrotation Xrotation Yrotation
													End Site
													{
														OFFSET 0.000000 -0.000000 0.099998
													}
												}
											}
										}
									}
								}
							}
						}
						JOINT LeftShoulder
						{
							OFFSET 2.380341 3.752301 -1.292747
							CHANNELS 6 Xposition Yposition Zposition Zrotation Xrotation Yrotation
							JOINT LeftArm
							{
								OFFSET 16.318199 0.000000 0.000061
								CHANNELS 6 Xposition Yposition Zposition Zrotation Xrotation Yrotation
								JOINT LeftForeArm
								{
									OFFSET 27.090103 0.000000 0.000000
									CHANNELS 6 Xposition Yposition Zposition Zrotation Xrotation Yrotation
									JOINT LeftHand
									{
										OFFSET 24.545097 0.000000 0.000015
										CHANNELS 6 Xposition Yposition Zposition Zrotation Xrotation Yrotation
										JOINT LeftHandMiddle1
										{
											OFFSET 9.218018 -0.545532 0.665817
											CHANNELS 6 Xposition Yposition Zposition Zrotation Xrotation Yrotation
											JOINT LeftHandMiddle2
											{
												OFFSET 2.662552 0.000000 0.000000
												CHANNELS 6 Xposition Yposition Zposition Zrotation Xrotation Yrotation
												JOINT LeftHandMiddle3
												{
													OFFSET 2.280403 0.000000 0.000000
													CHANNELS 6 Xposition Yposition Zposition Zrotation Xrotation Yrotation
													End Site
													{
														OFFSET 0.000000 0.000000 0.099998
													}
												}
											}
										}
										JOINT LeftHandRing1
										{
											OFFSET 9.247749 1.126700 0.665192
											CHANNELS 6 Xposition Yposition Zposition Zrotation Xrotation Yrotation
											JOINT LeftHandRing2
											{
												OFFSET 2.470413 0.000015 0.000000
												CHANNELS 6 Xposition Yposition Zposition Zrotation Xrotation Yrotation
												JOINT LeftHandRing3
												{
													OFFSET 2.205399 0.000000 0.000000
													CHANNELS 6 Xposition Yposition Zposition Zrotation Xrotation Yrotation
													End Site
													{
														OFFSET 0.000000 0.000000 0.099998
													}
												}
											}
										}
										JOINT LeftHandPinky1
										{
											OFFSET 9.353844 2.723320 0.663010
											CHANNELS 6 Xposition Yposition Zposition Zrotation Xrotation Yrotation
											JOINT LeftHandPinky2
											{
												OFFSET 1.634071 0.000000 0.000000
												CHANNELS 6 Xposition Yposition Zposition Zrotation Xrotation Yrotation
												JOINT LeftHandPinky3
												{
													OFFSET 1.711761 0.000000 0.000000
													CHANNELS 6 Xposition Yposition Zposition Zrotation Xrotation Yrotation
													End Site
													{
														OFFSET 0.000000 0.000000 0.099998
													}
												}
											}
										}
										JOINT LeftHandIndex1
										{
											OFFSET 8.731613 -2.068010 0.675903
											CHANNELS 6 Xposition Yposition Zposition Zrotation Xrotation Yrotation
											JOINT LeftHandIndex2
											{
												OFFSET 2.666893 0.000000 0.000000
												CHANNELS 6 Xposition Yposition Zposition Zrotation Xrotation Yrotation
												JOINT LeftHandIndex3
												{
													OFFSET 2.129463 -0.000015 0.000000
													CHANNELS 6 Xposition Yposition Zposition Zrotation Xrotation Yrotation
													End Site
													{
														OFFSET 0.000000 0.000000 0.099998
													}
												}
											}
										}
										JOINT LeftHandThumb1
										{
											OFFSET 4.967354 -3.395860 -0.622650
											CHANNELS 6 Xposition Yposition Zposition Zrotation Xrotation Yrotation
											JOINT LeftHandThumb2
											{
												OFFSET 2.153862 0.000000 0.000015
												CHANNELS 6 Xposition Yposition Zposition Zrotation Xrotation Yrotation
												JOINT LeftHandThumb3
												{
													OFFSET 2.195107 -0.000015 -0.000038
													CHANNELS 6 Xposition Yposition Zposition Zrotation Xrotation Yrotation
													End Site
													{
														OFFSET 0.000000 0.000000 0.099998
													}
												}
											}
										}
									}
								}
							}
						}
						JOINT Neck
						{
							OFFSET 5.022598 0.000000 -0.026634
							CHANNELS 6 Xposition Yposition Zposition Zrotation Xrotation Yrotation
							JOINT Head
							{
								OFFSET 6.693642 0.000000 0.000031
								CHANNELS 6 Xposition Yposition Zposition Zrotation Xrotation Yrotation
								End Site
								{
									OFFSET 0.000000 0.000000 0.099998
								}
							}
						}
					}
				}
			}
		}
	}
}
MOTION
Frames: 4
Frame Time: 0.041667
-4.395681 12.295987 94.475693 3.906166 -89.992728 3.904000 8.642589 2.388342 1.953975 85.667484 177.441525 -1.724127 43.770203 -0.000001 0.000001 -0.155329 2.358845 7.264448 40.623810 -0.000000 0.000014 1.813694 0.014029 -62.576513 12.724190 0.000001 0.000012 -0.000000 0.000002 -28.780802 -8.224899 2.593362 1.953965 -86.090983 -2.308685 178.248990 43.565308 0.000001 0.000013 0.149622 -2.146035 7.309419 40.623806 0.000001 0.000002 -1.539568 -0.011412 -62.586307 12.724207 0.000002 0.000008 0.000023 0.000002 -28.780798 0.165834 -6.613507 0.877136 -89.999702 -0.000029 5.880375 7.389637 -0.000001 0.000010 0.005377 -0.001338 -14.193499 11.944504 -0.000001 0.000008 0.004396 -0.000194 -2.522509 14.725418 0.000000 0.000040 0.000007 -0.000008 20.012700 10.967935 0.000001 0.000006 -0.000017 -0.000006 0.000001 2.466145 -3.696512 -1.665301 -121.148213 101.028456 11.722880 13.001199 0.000004 -0.000009 -31.074195 41.895793 25.683285 28.784815 -0.000012 0.000019 -14.362834 -48.055203 -11.988129 26.568796 0.000000 0.000024 3.305928 0.001387 1.059754 8.036767 -0.727870 -0.886589 -86.994637 89.689509 88.025217 2.788340 -0.000026 -0.000007 0.000023 0.000005 0.060488 2.411531 0.000009 0.000003 -0.000000 -0.000011 0.063922 7.979668 1.004868 -0.886776 -86.993408 89.689509 88.013954 2.863671 -0.000009 0.000001 0.000001 -0.000007 1.157421 2.110770 0.000010 0.000005 -0.000001 -0.000007 -2.575999 8.037091 2.606956 -0.887525 -86.991680 89.689557 87.635254 1.846280 -0.000006 -0.000003 -0.000000 -0.000007 1.145781 1.884337 -0.000013 -0.000004 -0.000000 0.000007 -1.145768 7.922637 -2.311757 -0.885488 -86.990860 89.689509 88.043700 2.637597 -0.000007 0.000002 0.000505 0.000007 -0.409288 2.166533 0.000008 -0.000003 0.000001 -0.000007 0.636602 3.476902 -2.887894 0.059791 -93.420875 105.153207 43.810442 2.776870 0.000012 0.000096 -1.363204 0.004265 7.671274 2.420596 -0.000003 -0.000097 0.000077 0.000012 11.263400 2.380321 3.752295 -1.292757 114.016751 79.754220 -1.387996 16.318203 -0.000004 0.000052 -28.822456 -24.276430 -24.238946 27.090101 0.000011 0.000002 -5.696594 33.410328 -1.025446 24.545109 0.000002 0.000007 0.582651 -0.050025 1.875514 9.218012 -0.545540 0.665796 -90.001935 -91.188503 -87.831329 2.662555 0.000016 0.000009 0.003299 -0.000199 -3.408884 2.280398 0.000011 0.000003 -0.000001 0.000002 0.954856 9.247748 1.126710 0.665159 89.999251 -88.811502 90.597248 2.470433 0.000018 0.000009 0.002885 -0.000155 -2.856358 2.205404 -0.000005 0.000004 -0.000000 0.000015 3.168440 9.353848 2.723323 0.662989 90.000071 -88.811392 89.716645 1.634070 -0.000013 -0.000014 0.002781 -0.000126 -2.544811 1.711761 0.000011 -0.000010 0.000000 0.000016 2.544819 8.731626 -2.068006 0.675878 -90.000604 -91.188503 -86.198415 2.666899 -0.000009 0.000004 0.006234 -0.000676 -6.131033 2.129464 -0.000025 0.000001 -0.000001 -0.000007 2.045420 4.967355 -3.395853 -0.622677 -89.745038 -101.903854 -40.474776 2.153862 -0.000010 0.000024 -0.000002 0.000006 -10.017202 2.195114 -0.000017 -0.000031 0.000004 -0.000002 2.669770 5.022592 -0.000000 -0.026652 0.000006 0.000169 -1.753512 6.693655 0.000001 0.000031 0.000265 -0.000108 7.410871 
-4.400361 12.269891 94.463295 60.423870 -89.985181 60.466893 8.642590 2.388348 1.953980 85.692564 177.431526 -0.589412 43.770187 -0.000000 0.000001 -0.045137 1.774018 4.979194 40.623798 0.000000 0.000018 1.908811 0.033396 -61.996616 12.724190 -0.000000 0.000023 0.000000 0.000002 -28.780802 -8.224901 2.593364 1.953970 -86.099630 -2.297054 178.033115 43.565300 -0.000001 0.000002 0.175730 -2.270105 7.751955 40.623802 0.000002 0.000006 -1.513997 -0.004996 -62.785653 12.724199 -0.000001 0.000001 0.000023 0.000003 -28.780795 0.165835 -6.613492 0.877126 -89.996123 0.000105 6.289440 7.389612 0.000000 0.000018 0.005377 -0.001338 -14.193501 11.944509 -0.000000 0.000009 0.004396 -0.000194 -2.522510 14.725401 -0.000000 0.000041 0.000007 -0.000008 20.012700 10.967901 0.000001 0.000000 -0.000017 -0.000006 -0.000001 2.466156 -3.696512 -1.665299 -120.984425 101.034877 11.564420 13.001209 0.000003 -0.000001 -31.090854 41.917639 25.671117 28.784798 -0.000030 0.000019 -14.306133 -48.075133 -11.987585 26.568808 0.000002 0.000050 3.326647 -0.001503 1.267214 8.036752 -0.727866 -0.886604 -86.994719 89.689509 88.025245 2.788332 -0.000027 -0.000007 0.000023 0.000005 0.060488 2.411545 0.000010 -0.000002 -0.000001 -0.000011 0.063920 7.979652 1.004858 -0.886776 -86.993483 89.689509 88.013975 2.863679 -0.000004 0.000003 0.000001 -0.000007 1.157420 2.110776 -0.000021 0.000005 -0.000001 -0.000007 -2.575999 8.037070 2.606950 -0.887526 -86.991796 89.689557 87.635275 1.846280 -0.000022 -0.000002 -0.000000 -0.000007 1.145780 1.884336 0.000001 0.000001 -0.000000 0.000007 -1.145770 7.922628 -2.311763 -0.885511 -86.990976 89.689509 88.043727 2.637608 -0.000019 -0.000003 0.000505 0.000007 -0.409285 2.166541 0.000003 0.000009 0.000001 -0.000007 0.636604 3.476887 -2.887890 0.059791 -93.420882 105.153201 43.810432 2.776866 0.000005 0.000098 -1.363206 0.004264 7.671277 2.420581 -0.000003 -0.000099 0.000074 0.000014 11.263399 2.380322 3.752292 -1.292744 114.333631 79.703766 -1.711171 16.318199 -0.000004 0.000056 -27.811531 -25.085285 -23.844643 27.090117 -0.000002 0.000002 -7.965677 33.355311 -1.019541 24.545097 -0.000001 0.000002 1.102122 -0.058593 2.854479 9.218013 -0.545544 0.665805 -90.001942 -91.188503 -87.831329 2.662556 -0.000013 0.000011 0.003299 -0.000199 -3.408878 2.280411 0.000012 -0.000004 -0.000001 0.000002 0.954859 9.247734 1.126716 0.665190 89.999244 -88.811502 90.597248 2.470436 -0.000006 0.000009 0.002885 -0.000155 -2.856358 2.205410 -0.000003 0.000007 -0.000001 0.000015 3.168439 9.353830 2.723307 0.662997 90.000043 -88.811392 89.716632 1.634064 0.000016 0.000001 0.002781 -0.000126 -2.544811 1.711764 0.000016 0.000002 0.000000 0.000016 2.544820 8.731618 -2.068002 0.675887 -90.000624 -91.188503 -86.198422 2.666902 0.000023 -0.000007 0.006234 -0.000676 -6.131031 2.129451 -0.000017 -0.000008 -0.000001 -0.000007 2.045418 4.967340 -3.395856 -0.622664 -89.745038 -101.903854 -40.474782 2.153853 -0.000010 0.000018 -0.000002 0.000006 -10.017202 2.195103 -0.000012 -0.000036 0.000004 -0.000002 2.669769 5.022589 0.000000 -0.026642 0.007261 0.028804 -1.719954 6.693633 0.000000 0.000026 0.032816 -0.009692 7.405306 
-4.405491 12.239590 94.485901 65.082216 -89.983152 65.183569 8.642588 2.388351 1.953993 85.677688 177.417073 -0.751638 43.770191 0.000001 0.000007 -0.059113 1.877654 5.352736 40.623810 -0.000001 0.000012 1.855990 0.046797 -61.874718 12.724190 -0.000001 0.000008 0.000001 0.000002 -28.780798 -8.224898 2.593371 1.953987 -86.096666 -2.305784 178.450262 43.565300 -0.000004 0.000002 0.154074 -2.439677 6.902115 40.623798 -0.000003 0.000006 -1.441878 -0.021615 -62.432649 12.724207 0.000002 0.000001 0.000023 0.000002 -28.780798 0.165833 -6.613480 0.877143 -89.986588 0.000395 6.325463 7.389629 -0.000001 0.000018 0.005377 -0.001338 -14.193500 11.944504 -0.000000 0.000008 0.004396 -0.000194 -2.522510 14.725401 0.000000 0.000040 0.000007 -0.000008 20.012700 10.967914 -0.000000 0.000000 -0.000017 -0.000006 -0.000001 2.466161 -3.696513 -1.665315 -120.797182 101.046010 11.389432 13.001198 -0.000005 -0.000004 -31.079068 41.935213 25.670986 28.784815 -0.000025 0.000021 -14.273294 -48.213991 -11.963933 26.568804 0.000000 0.000035 3.254656 -0.002477 1.256988 8.036757 -0.727861 -0.886576 -86.994624 89.689509 88.025388 2.788330 -0.000001 0.000003 0.000023 0.000005 0.060486 2.411536 0.000000 -0.000003 -0.000001 -0.000011 0.063921 7.979659 1.004859 -0.886755 -86.993387 89.689509 88.014043 2.863678 -0.000008 -0.000005 0.000001 -0.000007 1.157420 2.110791 0.000003 -0.000006 -0.000001 -0.000007 -2.576001 8.037078 2.606963 -0.887527 -86.991659 89.689557 87.635343 1.846280 0.000008 0.000003 -0.000000 -0.000007 1.145782 1.884329 0.000007 -0.000007 -0.000001 0.000007 -1.145770 7.922636 -2.311759 -0.885497 -86.990847 89.689509 88.043795 2.637598 -0.000006 -0.000010 0.000505 0.000007 -0.409286 2.166542 0.000002 -0.000003 0.000001 -0.000007 0.636602 3.476894 -2.887894 0.059805 -93.420875 105.153207 43.810435 2.776859 0.000016 0.000094 -1.363206 0.004265 7.671276 2.420591 0.000014 -0.000080 0.000076 0.000012 11.263395 2.380340 3.752294 -1.292759 114.477536 79.660155 -1.872109 16.318197 -0.000002 0.000072 -27.840602 -25.025525 -23.802374 27.090107 -0.000002 -0.000002 -7.795653 33.367380 -1.020135 24.545097 0.000001 -0.000002 1.259613 -0.046741 2.680391 9.218018 -0.545542 0.665841 -90.001942 -91.188503 -87.831329 2.662539 -0.000007 -0.000009 0.003299 -0.000199 -3.408879 2.280407 0.000016 -0.000003 -0.000001 0.000002 0.954859 9.247743 1.126718 0.665203 89.999258 -88.811502 90.597248 2.470433 0.000020 0.000008 0.002885 -0.000155 -2.856362 2.205420 -0.000017 0.000009 -0.000000 0.000015 3.168438 9.353841 2.723310 0.663019 90.000057 -88.811392 89.716645 1.634066 0.000030 -0.000007 0.002781 -0.000126 -2.544811 1.711769 -0.000017 -0.000003 0.000000 0.000016 2.544820 8.731615 -2.068007 0.675907 -90.000610 -91.188503 -86.198415 2.666901 -0.000019 0.000002 0.006234 -0.000676 -6.131032 2.129461 0.000006 0.000000 -0.000002 -0.000007 2.045418 4.967348 -3.395856 -0.622653 -89.745032 -101.903854 -40.474789 2.153874 -0.000027 0.000012 -0.000002 0.000006 -10.017200 2.195118 -0.000028 -0.000029 0.000005 -0.000002 2.669769 5.022608 -0.000001 -0.026655 0.037946 0.076250 -1.670538 6.693625 0.000001 0.000024 0.050942 0.013637 7.395799 
-4.405471 12.210492 94.453003 89.723298 -89.944507 89.885604 8.642591 2.388345 1.953990 85.666008 177.437769 -0.290317 43.770187 0.000001 0.000002 -0.025632 1.484353 4.504835 40.623795 0.000000 0.000014 2.026775 0.013003 -62.182090 12.724190 0.000001 0.000012 0.000000 0.000002 -28.780802 -8.224898 2.593359 1.953986 -86.136240 -2.297736 178.195865 43.565311 -0.000000 0.000009 0.179527 -2.465274 7.473003 40.623795 -0.000002 0.000004 -1.454013 -0.013329 -62.701492 12.724207 -0.000000 0.000001 0.000024 0.000002 -28.780795 0.165835 -6.613487 0.877133 -90.021962 -0.000603 6.349244 7.389630 -0.000000 0.000024 0.005437 -0.001102 -14.193600 11.944489 -0.000001 0.000015 0.004407 0.000065 -2.522670 14.725397 0.000000 0.000042 -0.000088 0.000254 20.012502 10.967918 0.000001 -0.000000 -0.000017 0.000249 -0.000158 2.466165 -3.696512 -1.665300 -120.637998 101.048435 11.258756 13.001199 0.000001 -0.000011 -31.026192 41.936788 25.665392 28.784801 -0.000031 0.000025 -14.291558 -48.193104 -11.996321 26.568802 0.000002 0.000015 3.337510 -0.000048 1.256364 8.036763 -0.727861 -0.886574 -86.994788 89.689509 88.025374 2.788322 -0.000019 -0.000016 0.000023 0.000005 0.060488 2.411543 0.000004 -0.000003 -0.000001 -0.000011 0.063921 7.979658 1.004868 -0.886761 -86.993544 89.689509 88.014029 2.863664 0.000010 -0.000006 0.000001 -0.000007 1.157421 2.110777 -0.000006 0.000002 -0.000001 -0.000007 -2.576001 8.037070 2.606956 -0.887526 -86.991823 89.689557 87.635330 1.846271 -0.000017 -0.000001 -0.000000 -0.000007 1.145780 1.884326 -0.000004 -0.000001 -0.000001 0.000007 -1.145769 7.922626 -2.311744 -0.885503 -86.990969 89.689509 88.043775 2.637604 0.000007 0.000002 0.000505 0.000007 -0.409287 2.166546 0.000014 0.000004 0.000001 -0.000007 0.636603 3.476887 -2.887890 0.059814 -93.420875 105.153201 43.810435 2.776859 0.000029 0.000073 -1.363204 0.004266 7.671278 2.420589 -0.000002 -0.000094 0.000076 0.000013 11.263394 2.380350 3.752295 -1.292747 114.802639 79.614515 -2.166501 16.318203 -0.000003 0.000046 -27.979761 -24.943625 -23.787944 27.090105 -0.000007 -0.000014 -7.594700 33.350246 -1.020474 24.545115 -0.000003 0.000014 1.408904 -0.035632 2.506351 9.218020 -0.545536 0.665825 -90.001929 -91.188503 -87.831315 2.662549 0.000012 -0.000004 0.003299 -0.000199 -3.408881 2.280420 0.000011 -0.000000 -0.000001 0.000002 0.954862 9.247750 1.126708 0.665212 89.999258 -88.811502 90.597255 2.470420 0.000003 0.000007 0.002885 -0.000155 -2.856361 2.205411 -0.000007 0.000008 -0.000001 0.000015 3.168439 9.353846 2.723317 0.663012 90.000064 -88.811392 89.716645 1.634073 -0.000003 -0.000000 0.002781 -0.000126 -2.544810 1.711772 -0.000003 0.000002 0.000000 0.000016 2.544820 8.731628 -2.068011 0.675915 -90.000610 -91.188503 -86.198408 2.666901 0.000023 -0.000000 0.006234 -0.000676 -6.131031 2.129465 0.000012 -0.000019 -0.000002 -0.000007 2.045420 4.967355 -3.395860 -0.622631 -89.745038 -101.903854 -40.474779 2.153866 -0.000010 0.000041 -0.000002 0.000006 -10.017198 2.195113 -0.000019 -0.000034 0.000004 -0.000003 2.669771 5.022611 -0.000000 -0.026643 0.072202 0.127051 -1.611399 6.693630 -0.000001 0.000033 0.118548 0.051387 7.357415 
